<svg width="194" height="60" viewBox="0 0 194 60" fill="none" xmlns="http://www.w3.org/2000/svg">
<g clip-path="url(#clip0_5522_1265)">
<path d="M187.023 60H6.75882C3.45397 60 0.75 57.3 0.75 54V6C0.75 2.7 3.45397 0 6.75882 0H187.023C190.329 0 193.032 2.7 193.032 6V54C193.032 57.3 190.329 60 187.023 60Z" fill="black"/>
<path d="M41.3114 29.6995C41.3114 25.0495 45.2171 22.7995 45.3673 22.6495C43.1141 19.4995 39.8091 19.0495 38.6074 18.8995C35.7532 18.5996 32.899 20.5495 31.5471 20.5495C30.0448 20.5495 27.7916 18.8995 25.3879 18.8995C22.2333 18.8995 19.3792 20.6995 17.7267 23.5495C14.4219 29.2495 16.8254 37.6495 19.9801 42.2995C21.6324 44.5495 23.4351 47.0995 25.8387 46.9495C28.2421 46.7995 29.1435 45.4495 31.9977 45.4495C34.8519 45.4495 35.603 46.9495 38.1566 46.9495C40.7105 46.9495 42.3629 44.6995 43.865 42.4495C45.6677 39.8995 46.4188 37.3495 46.4188 37.1995C46.2687 37.0495 41.3114 35.2495 41.3114 29.6995Z" fill="white"/>
<path d="M36.6552 15.8994C37.8569 14.2494 38.7582 12.1494 38.608 9.89941C36.8054 10.0494 34.4017 11.0994 33.2 12.7494C31.9983 14.0994 30.9468 16.3494 31.2472 18.4494C33.2 18.5994 35.3031 17.3994 36.6552 15.8994Z" fill="white"/>
<path d="M75.5598 46.6508H72.2548L70.4522 40.9508H64.143L62.4905 46.6508H59.3359L65.6451 27.3008H69.551L75.5598 46.6508ZM69.8514 38.5508L68.1989 33.4508C68.0487 33.0008 67.7483 31.6508 67.1474 29.8508C66.9972 30.6008 66.6968 31.9508 66.2461 33.4508L64.5936 38.5508H69.8514Z" fill="white"/>
<path d="M91.6292 39.5998C91.6292 41.9998 91.0283 43.7998 89.6764 45.2998C88.4746 46.4998 87.1225 47.0998 85.3199 47.0998C83.5172 47.0998 82.1653 46.4998 81.4141 45.1498V52.4998H78.2596V37.4998C78.2596 35.9998 78.2596 34.4998 78.1094 32.8498H80.8134L80.9636 35.0998C82.0151 33.4498 83.5172 32.5498 85.6204 32.5498C87.2727 32.5498 88.6248 33.1498 89.6764 34.4998C91.0283 35.6998 91.6292 37.3498 91.6292 39.5998ZM88.4746 39.5998C88.4746 38.2498 88.1741 37.0498 87.5733 36.2998C86.9724 35.3998 86.071 34.9498 84.8693 34.9498C84.1182 34.9498 83.367 35.2498 82.7662 35.6998C82.1653 36.1498 81.7147 36.8998 81.5643 37.6498C81.4141 38.0998 81.4141 38.3998 81.4141 38.5498V40.9498C81.4141 41.9998 81.7147 42.7498 82.3155 43.4998C82.9164 44.2498 83.8178 44.5498 84.7191 44.5498C85.9208 44.5498 86.8222 44.0998 87.4231 43.1998C88.1741 42.2998 88.4746 41.0998 88.4746 39.5998Z" fill="white"/>
<path d="M107.707 39.5998C107.707 41.9998 107.106 43.7998 105.754 45.2998C104.553 46.4998 103.201 47.0998 101.398 47.0998C99.5953 47.0998 98.2434 46.4998 97.4923 45.1498V52.4998H94.3377V37.4998C94.3377 35.9998 94.3377 34.4998 94.1875 32.8498H96.8913L97.0417 35.0998C98.0932 33.4498 99.5953 32.5498 101.698 32.5498C103.351 32.5498 104.703 33.1498 105.754 34.4998C107.106 35.6998 107.707 37.3498 107.707 39.5998ZM104.553 39.5998C104.553 38.2498 104.252 37.0498 103.651 36.2998C103.05 35.3998 102.149 34.9498 100.947 34.9498C100.196 34.9498 99.4451 35.2498 98.8442 35.6998C98.2434 36.1498 97.7927 36.8998 97.6425 37.6498C97.4923 38.0998 97.4923 38.3998 97.4923 38.5498V40.9498C97.4923 41.9998 97.7927 42.7498 98.3936 43.4998C98.9944 44.2498 99.8957 44.5498 100.797 44.5498C101.999 44.5498 102.9 44.0998 103.501 43.1998C104.252 42.2998 104.553 41.0998 104.553 39.5998Z" fill="white"/>
<path d="M125.735 41.2504C125.735 42.9004 125.134 44.2504 124.082 45.3004C122.881 46.5004 121.078 46.9504 118.825 46.9504C116.721 46.9504 115.069 46.5004 113.867 45.7504L114.618 43.2004C115.97 43.9504 117.473 44.4004 119.125 44.4004C120.327 44.4004 121.228 44.1004 121.829 43.6504C122.43 43.0504 122.73 42.4504 122.73 41.5504C122.73 40.8004 122.43 40.0504 121.979 39.6004C121.378 39.0004 120.477 38.5504 119.275 38.1004C115.82 36.9004 114.168 34.9504 114.168 32.5504C114.168 30.9004 114.769 29.7004 115.97 28.6504C117.172 27.6004 118.674 27.1504 120.777 27.1504C122.58 27.1504 123.932 27.4504 125.134 28.0504L124.383 30.6004C123.331 30.0004 122.129 29.7004 120.627 29.7004C119.576 29.7004 118.674 30.0004 118.073 30.4504C117.623 30.9004 117.322 31.5004 117.322 32.2504C117.322 33.0004 117.623 33.6004 118.224 34.2004C118.674 34.6504 119.726 35.1004 121.078 35.7004C122.73 36.3004 123.932 37.2004 124.833 38.1004C125.284 38.8504 125.735 39.9004 125.735 41.2504Z" fill="white"/>
<path d="M135.953 35.099H132.498V41.849C132.498 43.499 133.099 44.399 134.301 44.399C134.902 44.399 135.352 44.399 135.653 44.249L135.803 46.649C135.202 46.949 134.451 46.949 133.399 46.949C132.198 46.949 131.146 46.649 130.545 45.899C129.794 45.149 129.494 43.949 129.494 42.149V35.099H127.391V32.699H129.494V30.149L132.498 29.249V32.699H135.953V35.099Z" fill="white"/>
<path d="M151.42 39.5994C151.42 41.6994 150.819 43.4994 149.618 44.8494C148.265 46.1994 146.613 46.9494 144.51 46.9494C142.407 46.9494 140.754 46.1994 139.553 44.8494C138.351 43.4994 137.75 41.8494 137.75 39.7494C137.75 37.6494 138.351 35.8494 139.703 34.4994C140.905 33.1494 142.707 32.3994 144.811 32.3994C146.914 32.3994 148.566 33.1494 149.768 34.4994C150.819 35.8494 151.42 37.4994 151.42 39.5994ZM148.115 39.7494C148.115 38.3994 147.815 37.3494 147.214 36.4494C146.613 35.3994 145.561 34.7994 144.36 34.7994C143.158 34.7994 142.106 35.3994 141.506 36.4494C140.905 37.3494 140.604 38.5494 140.604 39.7494C140.604 41.0994 140.905 42.1494 141.506 43.0494C142.106 44.0994 143.158 44.6994 144.36 44.6994C145.561 44.6994 146.463 44.0994 147.214 43.0494C147.815 42.1494 148.115 40.9494 148.115 39.7494Z" fill="white"/>
<path d="M161.489 35.399C161.189 35.399 160.888 35.249 160.438 35.249C159.386 35.249 158.485 35.699 157.884 36.449C157.433 37.199 157.133 38.099 157.133 39.149V46.499H153.978V36.899C153.978 35.249 153.978 33.899 153.828 32.549H156.532L156.682 35.249H156.833C157.133 34.349 157.734 33.599 158.335 32.999C159.086 32.549 159.837 32.249 160.588 32.249C160.888 32.249 161.189 32.249 161.339 32.249V35.399H161.489Z" fill="white"/>
<path d="M175.304 38.9994C175.304 39.5994 175.304 40.0494 175.154 40.3494H165.84C165.84 41.6994 166.291 42.7494 167.192 43.4994C167.944 44.0994 168.995 44.5494 170.197 44.5494C171.549 44.5494 172.901 44.3994 173.952 43.9494L174.403 46.0494C173.051 46.6494 171.549 46.9494 169.746 46.9494C167.643 46.9494 165.84 46.3494 164.639 44.9994C163.437 43.7994 162.836 41.9994 162.836 39.8994C162.836 37.7994 163.437 35.9994 164.488 34.6494C165.69 33.1494 167.343 32.3994 169.446 32.3994C171.399 32.3994 173.051 33.1494 173.952 34.6494C175.004 35.8494 175.304 37.3494 175.304 38.9994ZM172.45 38.2494C172.45 37.3494 172.3 36.5994 171.849 35.8494C171.248 34.9494 170.497 34.4994 169.446 34.4994C168.394 34.4994 167.643 34.9494 167.042 35.6994C166.591 36.2994 166.291 37.1994 166.141 38.0994H172.45V38.2494Z" fill="white"/>
<path d="M68.9521 15.4502C68.9521 17.1002 68.5015 18.4502 67.45 19.3501C66.5486 20.1001 65.1965 20.5501 63.3941 20.5501C62.4927 20.5501 61.7416 20.5501 61.1406 20.4001V11.1002C61.8918 10.9502 62.7931 10.9502 63.8446 10.9502C65.4971 10.9502 66.6988 11.2502 67.6002 12.0002C68.3513 12.7502 68.9521 13.9502 68.9521 15.4502ZM67.2998 15.4502C67.2998 14.4002 66.9992 13.5002 66.3984 12.9002C65.7975 12.3002 64.8962 12.0002 63.8446 12.0002C63.3941 12.0002 62.9433 12.0002 62.6429 12.1502V19.2001C62.7931 19.2001 63.2437 19.2001 63.6944 19.2001C64.8962 19.2001 65.7975 18.9001 66.3984 18.3002C66.9992 17.7002 67.2998 16.6502 67.2998 15.4502Z" fill="white"/>
<path d="M77.3615 16.9496C77.3615 17.9996 77.0611 18.8996 76.4602 19.4996C75.8594 20.2496 74.9581 20.5496 73.9065 20.5496C72.8548 20.5496 72.1039 20.2496 71.5029 19.4996C70.9019 18.8996 70.6016 17.9996 70.6016 16.9496C70.6016 15.8996 70.9019 14.9996 71.5029 14.3996C72.1039 13.6496 73.0052 13.3496 74.0567 13.3496C75.1082 13.3496 75.8594 13.6496 76.4602 14.3996C77.0611 14.9996 77.3615 15.8996 77.3615 16.9496ZM75.8592 16.9496C75.8592 16.3496 75.709 15.7496 75.4086 15.2996C75.1082 14.6996 74.6575 14.5496 74.0567 14.5496C73.4558 14.5496 73.0052 14.8496 72.7046 15.2996C72.4042 15.7496 72.254 16.3496 72.254 16.9496C72.254 17.5496 72.4042 18.1496 72.7046 18.5996C73.0052 19.1996 73.4558 19.3496 74.0567 19.3496C74.6575 19.3496 75.1082 19.0496 75.4086 18.4496C75.709 18.1496 75.8592 17.5496 75.8592 16.9496Z" fill="white"/>
<path d="M88.9319 13.499L86.8288 20.399H85.4767L84.5754 17.399C84.275 16.649 84.1248 15.899 83.9746 15.149C83.8244 15.899 83.6743 16.649 83.3737 17.399L82.4723 20.399H81.1204L78.8672 13.499H80.3693L81.1204 16.799C81.2706 17.549 81.4208 18.299 81.571 19.049C81.7214 18.449 81.8716 17.699 82.172 16.799L83.0733 13.499H84.275L85.1764 16.649C85.4767 17.399 85.6271 18.149 85.7773 18.899C85.9275 18.149 86.0777 17.399 86.2279 16.649L87.1292 13.499H88.9319Z" fill="white"/>
<path d="M96.7414 20.4011H95.2393V16.5012C95.2393 15.3012 94.7885 14.7012 93.8872 14.7012C93.4366 14.7012 93.1362 14.8512 92.8357 15.1512C92.5353 15.4512 92.3851 15.9012 92.3851 16.3512V20.4011H90.8828V15.4512C90.8828 14.8512 90.8828 14.2512 90.8828 13.5012H92.2349V14.5512C92.3851 14.2512 92.6855 13.9512 92.9861 13.6512C93.4366 13.3512 93.8872 13.2012 94.338 13.2012C94.9389 13.2012 95.5397 13.3512 95.9904 13.8012C96.5912 14.2512 96.7414 15.0012 96.7414 16.0512V20.4011Z" fill="white"/>
<path d="M100.948 20.3996H99.4453V10.3496H100.948V20.3996Z" fill="white"/>
<path d="M109.963 16.9496C109.963 17.9996 109.663 18.8996 109.062 19.4996C108.461 20.2496 107.56 20.5496 106.508 20.5496C105.457 20.5496 104.705 20.2496 104.104 19.4996C103.504 18.8996 103.203 17.9996 103.203 16.9496C103.203 15.8996 103.504 14.9996 104.104 14.3996C104.705 13.7996 105.607 13.3496 106.658 13.3496C107.71 13.3496 108.461 13.6496 109.062 14.3996C109.663 14.9996 109.963 15.8996 109.963 16.9496ZM108.461 16.9496C108.461 16.3496 108.311 15.7496 108.01 15.2996C107.71 14.6996 107.259 14.5496 106.658 14.5496C106.057 14.5496 105.607 14.8496 105.306 15.2996C105.006 15.7496 104.856 16.3496 104.856 16.9496C104.856 17.5496 105.006 18.1496 105.306 18.5996C105.607 19.1996 106.057 19.3496 106.658 19.3496C107.259 19.3496 107.71 19.0496 108.01 18.4496C108.311 18.1496 108.461 17.5496 108.461 16.9496Z" fill="white"/>
<path d="M117.324 20.3996H115.972L115.822 19.6496C115.371 20.2496 114.62 20.5496 113.869 20.5496C113.268 20.5496 112.667 20.3996 112.366 19.9496C112.066 19.4996 111.766 19.0496 111.766 18.5996C111.766 17.6996 112.066 17.0996 112.817 16.6496C113.568 16.1996 114.469 16.0496 115.822 16.0496V15.8996C115.822 14.9996 115.371 14.5496 114.469 14.5496C113.718 14.5496 113.268 14.6996 112.667 14.9996L112.366 13.9496C112.967 13.4996 113.718 13.3496 114.77 13.3496C116.573 13.3496 117.474 14.2496 117.474 16.1996V18.7496C117.324 19.4996 117.324 19.9496 117.324 20.3996ZM115.822 17.9996V16.9496C114.169 16.9496 113.268 17.3996 113.268 18.2996C113.268 18.5996 113.418 18.8996 113.568 19.0496C113.718 19.1996 114.019 19.3496 114.319 19.3496C114.62 19.3496 114.92 19.1996 115.221 19.0496C115.521 18.8996 115.671 18.5996 115.822 18.2996C115.822 18.2996 115.822 18.1496 115.822 17.9996Z" fill="white"/>
<path d="M126.03 20.399H124.678V19.349C124.227 20.249 123.476 20.549 122.425 20.549C121.523 20.549 120.922 20.249 120.321 19.649C119.721 19.049 119.57 18.149 119.57 17.099C119.57 16.049 119.871 15.149 120.472 14.399C121.072 13.799 121.824 13.499 122.575 13.499C123.476 13.499 124.077 13.799 124.528 14.399V10.499H126.03V18.599C126.03 19.199 126.03 19.799 126.03 20.399ZM124.528 17.549V16.349C124.528 16.199 124.528 16.049 124.528 15.899C124.377 15.599 124.227 15.299 123.927 14.999C123.626 14.699 123.326 14.699 122.875 14.699C122.274 14.699 121.824 14.999 121.523 15.449C121.223 15.899 121.072 16.499 121.072 17.249C121.072 17.999 121.223 18.449 121.523 18.899C121.824 19.349 122.274 19.649 122.875 19.649C123.326 19.649 123.776 19.499 124.077 19.049C124.377 18.449 124.528 17.999 124.528 17.549Z" fill="white"/>
<path d="M139.104 16.9496C139.104 17.9996 138.803 18.8996 138.202 19.4996C137.601 20.2496 136.7 20.5496 135.649 20.5496C134.597 20.5496 133.846 20.2496 133.245 19.4996C132.644 18.8996 132.344 17.9996 132.344 16.9496C132.344 15.8996 132.644 14.9996 133.245 14.3996C133.846 13.6496 134.747 13.3496 135.799 13.3496C136.85 13.3496 137.601 13.6496 138.202 14.3996C138.803 14.9996 139.104 15.8996 139.104 16.9496ZM137.451 16.9496C137.451 16.3496 137.301 15.7496 137 15.2996C136.7 14.6996 136.249 14.5496 135.649 14.5496C135.048 14.5496 134.597 14.8496 134.297 15.2996C133.996 15.7496 133.846 16.3496 133.846 16.9496C133.846 17.5496 133.996 18.1496 134.297 18.5996C134.597 19.1996 135.048 19.3496 135.649 19.3496C136.249 19.3496 136.7 19.0496 137 18.4496C137.301 18.1496 137.451 17.5496 137.451 16.9496Z" fill="white"/>
<path d="M147.366 20.4011H145.864V16.5012C145.864 15.3012 145.414 14.7012 144.512 14.7012C144.061 14.7012 143.761 14.8512 143.461 15.1512C143.16 15.4512 143.01 15.9012 143.01 16.3512V20.4011H141.508V15.4512C141.508 14.8512 141.508 14.2512 141.508 13.5012H142.86V14.5512C143.01 14.2512 143.31 13.9512 143.611 13.6512C144.062 13.3512 144.512 13.2012 144.963 13.2012C145.564 13.2012 146.165 13.3512 146.615 13.8012C147.216 14.2512 147.366 15.0012 147.366 16.0512V20.4011Z" fill="white"/>
<path d="M157.58 14.6996H155.927V17.9996C155.927 18.8996 156.227 19.1996 156.828 19.1996C157.129 19.1996 157.279 19.1996 157.58 19.1996V20.3996C157.279 20.5496 156.828 20.5496 156.378 20.5496C155.777 20.5496 155.326 20.3996 155.026 19.9496C154.725 19.6496 154.575 18.8996 154.575 18.1496V14.6996H153.523V13.4996H154.575V12.2996L156.077 11.8496V13.4996H157.73V14.6996H157.58Z" fill="white"/>
<path d="M165.695 20.3996H164.192V16.4996C164.192 15.2996 163.742 14.6996 162.84 14.6996C162.089 14.6996 161.639 14.9996 161.338 15.7496C161.338 15.8996 161.338 16.0496 161.338 16.3496V20.3996H159.836V10.3496H161.338V14.5496C161.789 13.7996 162.54 13.3496 163.441 13.3496C164.042 13.3496 164.643 13.4996 164.943 13.9496C165.394 14.3996 165.695 15.2996 165.695 16.1996V20.3996Z" fill="white"/>
<path d="M173.954 16.649C173.954 16.949 173.954 17.099 173.954 17.399H169.447C169.447 18.149 169.748 18.599 170.048 18.899C170.499 19.199 170.95 19.349 171.55 19.349C172.302 19.349 172.903 19.199 173.353 19.049L173.654 20.099C173.053 20.399 172.302 20.549 171.4 20.549C170.349 20.549 169.447 20.249 168.847 19.649C168.246 19.049 167.945 18.149 167.945 17.099C167.945 16.049 168.246 15.149 168.847 14.549C169.447 13.799 170.199 13.499 171.25 13.499C172.302 13.499 173.053 13.799 173.503 14.549C173.804 14.999 173.954 15.749 173.954 16.649ZM172.602 16.199C172.602 15.749 172.452 15.299 172.302 14.999C172.001 14.549 171.701 14.399 171.1 14.399C170.649 14.399 170.199 14.549 169.898 14.999C169.598 15.299 169.447 15.749 169.447 16.199H172.602Z" fill="white"/>
</g>
<defs>
<clipPath id="clip0_5522_1265">
<rect width="193.13" height="60" fill="white" transform="translate(0.75)"/>
</clipPath>
</defs>
</svg>
