<svg width="89" height="71" viewBox="0 0 89 71" fill="none" xmlns="http://www.w3.org/2000/svg">
<g clip-path="url(#clip0_5521_1223)">
<path d="M86 1.79688H3C1.89543 1.79688 1 2.69231 1 3.79688V58.0749C1 59.1794 1.89543 60.0749 3 60.0749H86C87.1046 60.0749 88 59.1794 88 58.0749V3.79688C88 2.69231 87.1046 1.79688 86 1.79688Z" stroke="#393939" stroke-width="2"/>
<path d="M30.9588 61.0742H58.0457V64.9632H30.9588V61.0742ZM23.2188 66.9632C23.2188 66.4328 23.4295 65.9241 23.8045 65.549C24.1796 65.1739 24.6883 64.9632 25.2188 64.9632H63.7838C64.3142 64.9632 64.8229 65.1739 65.198 65.549C65.573 65.9241 65.7837 66.4328 65.7837 66.9632V70.7962H23.2188V66.9632Z" fill="#393939"/>
</g>
<defs>
<clipPath id="clip0_5521_1223">
<rect width="89" height="70" fill="white" transform="translate(0 0.796875)"/>
</clipPath>
</defs>
</svg>
