<svg width="23" height="22" viewBox="0 0 23 22" fill="none" xmlns="http://www.w3.org/2000/svg">
<g clip-path="url(#clip0_5521_1030)">
<path d="M22.3125 11C22.3125 5.11328 17.543 0.34375 11.6562 0.34375C5.76953 0.34375 1 5.11328 1 11C1 16.3187 4.89684 20.7273 9.99121 21.5273V14.0804H7.28418V11H9.99121V8.65219C9.99121 5.98168 11.5811 4.50656 14.0161 4.50656C15.1823 4.50656 16.4017 4.71453 16.4017 4.71453V7.33563H15.0577C13.7342 7.33563 13.3213 8.15719 13.3213 8.9998V11H16.2767L15.804 14.0804H13.3213V21.5273C18.4157 20.7273 22.3125 16.3187 22.3125 11Z" fill="#98A2B3"/>
</g>
<defs>
<clipPath id="clip0_5521_1030">
<rect width="22" height="22" fill="white" transform="translate(0.65625)"/>
</clipPath>
</defs>
</svg>
