<svg width="25" height="24" viewBox="0 0 25 24" fill="none" xmlns="http://www.w3.org/2000/svg">
<path d="M12.5899 7.06836C9.6269 7.06836 7.17188 9.48106 7.17188 12.4863C7.17188 15.4916 9.58457 17.9043 12.5899 17.9043C15.5952 17.9043 18.0079 15.4493 18.0079 12.4863C18.0079 9.52339 15.5528 7.06836 12.5899 7.06836ZM12.5899 15.9572C10.6851 15.9572 9.11897 14.3911 9.11897 12.4863C9.11897 10.5816 10.6851 9.01545 12.5899 9.01545C14.4946 9.01545 16.0608 10.5816 16.0608 12.4863C16.0608 14.3911 14.4946 15.9572 12.5899 15.9572Z" fill="#98A2B3"/>
<path d="M18.2197 8.16792C18.8976 8.16792 19.4472 7.61834 19.4472 6.9404C19.4472 6.26247 18.8976 5.71289 18.2197 5.71289C17.5418 5.71289 16.9922 6.26247 16.9922 6.9404C16.9922 7.61834 17.5418 8.16792 18.2197 8.16792Z" fill="#98A2B3"/>
<path d="M21.3953 3.7667C20.2948 2.62384 18.7287 2.03125 16.9509 2.03125H8.23132C4.54878 2.03125 2.09375 4.48628 2.09375 8.16882V16.8461C2.09375 18.6662 2.68634 20.2323 3.87153 21.3752C5.01438 22.4757 6.5382 23.026 8.27364 23.026H16.9086C18.7287 23.026 20.2525 22.4334 21.353 21.3752C22.4959 20.2746 23.0885 18.7085 23.0885 16.8884V8.16882C23.0885 6.39104 22.4959 4.86723 21.3953 3.7667ZM21.226 16.8884C21.226 18.2006 20.7604 19.2588 19.9985 19.9783C19.2366 20.6979 18.1784 21.0789 16.9086 21.0789H8.27364C7.0038 21.0789 5.9456 20.6979 5.1837 19.9783C4.42179 19.2164 4.04084 18.1582 4.04084 16.8461V8.16882C4.04084 6.89897 4.42179 5.84077 5.1837 5.07887C5.90327 4.35929 7.0038 3.97834 8.27364 3.97834H16.9932C18.2631 3.97834 19.3213 4.35929 20.0832 5.1212C20.8027 5.8831 21.226 6.9413 21.226 8.16882V16.8884Z" fill="#98A2B3"/>
</svg>
