<svg width="39" height="71" viewBox="0 0 39 71" fill="none" xmlns="http://www.w3.org/2000/svg">
<g clip-path="url(#clip0_5521_1229)">
<path d="M35.5156 1.20312H3.51562C2.41106 1.20312 1.51562 2.09856 1.51562 3.20312V67.2031C1.51562 68.3077 2.41106 69.2031 3.51562 69.2031H35.5156C36.6202 69.2031 37.5156 68.3077 37.5156 67.2031V3.20312C37.5156 2.09856 36.6202 1.20312 35.5156 1.20312Z" stroke="#393939" stroke-width="2"/>
<path d="M12.5156 1.48047H26.1826V3.97047C26.1826 4.15612 26.1089 4.33417 25.9776 4.46544C25.8463 4.59672 25.6683 4.67047 25.4826 4.67047H13.2156C13.03 4.67047 12.8519 4.59672 12.7207 4.46544C12.5894 4.33417 12.5156 4.15612 12.5156 3.97047V1.48047Z" fill="#393939"/>
</g>
<defs>
<clipPath id="clip0_5521_1229">
<rect width="38" height="70" fill="white" transform="translate(0.515625 0.203125)"/>
</clipPath>
</defs>
</svg>
