<svg width="199" height="60" viewBox="0 0 199 60" fill="none" xmlns="http://www.w3.org/2000/svg">
<path d="M191.817 60H6.57326C3.17711 60 0.398438 57.3 0.398438 54V6C0.398438 2.7 3.17711 0 6.57326 0H191.817C195.215 0 197.994 2.7 197.994 6V54C197.994 57.3 195.215 60 191.817 60Z" fill="black"/>
<path fill-rule="evenodd" clip-rule="evenodd" d="M15.5234 29.4V13.65C15.5234 12.75 16.2953 12 17.0671 12C17.839 12 18.1477 12.15 18.6109 12.45L48.4044 28.35C49.0219 28.65 49.3307 29.1 49.3307 29.55C49.3307 30 49.0219 30.45 48.4044 30.75L18.6109 46.65C18.3021 46.8 17.839 47.1 17.0671 47.1C16.2953 47.1 15.5234 46.35 15.5234 45.45V29.4Z" fill="url(#paint0_linear_5522_1248)"/>
<path fill-rule="evenodd" clip-rule="evenodd" d="M34.8192 29.55L16.7578 12C16.9122 12 16.9122 12 17.0665 12C17.8384 12 18.1471 12.15 18.6103 12.45L40.5308 24.15L34.8192 29.55Z" fill="url(#paint1_linear_5522_1248)"/>
<path fill-rule="evenodd" clip-rule="evenodd" d="M40.3776 34.8006L34.8203 29.4006L40.5319 23.8506L48.4049 28.0506C49.0223 28.3506 49.3311 28.8006 49.3311 29.2506C49.3311 29.7006 49.0223 30.1506 48.4049 30.4506L40.3776 34.8006Z" fill="url(#paint2_linear_5522_1248)"/>
<path fill-rule="evenodd" clip-rule="evenodd" d="M16.9141 46.7994L34.8211 29.3994L40.3784 34.7994L18.6122 46.3494C18.1491 46.6494 17.8403 46.7994 16.9141 46.7994C17.0684 46.7994 17.0684 46.7994 16.9141 46.7994Z" fill="url(#paint3_linear_5522_1248)"/>
<path fill-rule="evenodd" clip-rule="evenodd" d="M110.154 50.851C109.382 50.251 108.764 49.201 108.456 48.601L110.926 47.551C111.08 47.851 111.389 48.301 111.697 48.751C112.315 49.351 113.241 49.951 114.167 49.951C115.094 49.951 116.174 49.501 116.792 48.751C117.255 48.001 117.563 47.251 117.563 46.201V45.301C115.711 47.551 111.852 47.251 109.691 44.851C107.375 42.451 107.375 38.401 109.691 36.001C112.006 33.751 115.402 33.451 117.409 35.551V34.501H120.033V45.751C120.033 48.601 118.953 50.251 117.563 51.301C116.637 52.051 115.248 52.351 114.013 52.351C112.624 52.201 111.234 51.751 110.154 50.851ZM174.835 51.451L177.459 45.451L172.828 35.101H175.452L178.694 42.451L181.936 35.101H184.56L177.459 51.451H174.835ZM162.331 45.751C161.559 45.001 161.25 43.951 161.25 42.901C161.25 42.001 161.559 41.101 162.177 40.501C163.257 39.451 164.801 39.001 166.499 39.001C167.58 39.001 168.506 39.151 169.278 39.601C169.278 37.801 167.734 37.051 166.499 37.051C165.418 37.051 164.338 37.651 163.875 38.701L161.559 37.801C162.022 36.751 163.257 34.801 166.345 34.801C167.888 34.801 169.432 35.251 170.358 36.301C171.284 37.351 171.593 38.551 171.593 40.201V46.501H168.969V45.451C168.66 45.901 168.043 46.201 167.579 46.501C166.962 46.801 166.19 46.951 165.418 46.951C164.492 46.801 163.103 46.501 162.331 45.751ZM80.0513 40.351C80.0513 37.351 82.3669 34.051 86.5348 34.051C90.5486 34.051 93.0186 37.351 93.0186 40.351C93.0186 43.351 90.7029 46.651 86.5348 46.651C82.3669 46.651 80.0513 43.351 80.0513 40.351ZM93.9446 40.351C93.9446 37.351 96.2603 34.051 100.428 34.051C104.442 34.051 106.912 37.351 106.912 40.351C106.912 43.351 104.596 46.651 100.428 46.651C96.4146 46.651 93.9446 43.351 93.9446 40.351ZM62.6074 43.651C58.7483 39.901 58.9026 33.751 62.7619 29.851C64.7687 27.901 67.2386 27.001 69.8629 27.001C72.3328 27.001 74.8028 27.901 76.6553 29.701L74.8028 31.651C72.024 28.951 67.5473 29.101 64.923 31.801C62.1443 34.651 62.1443 39.001 64.923 41.851C67.7018 44.701 72.3328 44.851 75.1114 42.001C76.0376 41.101 76.3464 39.901 76.5008 38.701H70.0172V36.001H79.1252C79.2795 36.601 79.2795 37.351 79.2795 38.101C79.2795 40.351 78.3533 42.601 76.8096 44.101C75.1114 45.751 72.6414 46.651 70.1717 46.651C67.3929 46.501 64.6142 45.601 62.6074 43.651ZM127.906 44.701C125.591 42.301 125.591 38.251 127.906 35.701C130.222 33.301 134.081 33.301 136.242 35.701C137.014 36.451 137.477 37.501 137.94 38.551L129.45 42.001C129.913 43.051 130.994 43.951 132.537 43.951C133.927 43.951 134.853 43.501 135.779 42.151L138.095 43.651C137.786 43.951 137.477 44.251 137.323 44.551C134.699 47.101 130.222 47.101 127.906 44.701ZM143.961 46.501V29.851H149.518C152.76 29.851 155.384 32.101 155.384 34.801C155.384 37.501 153.069 39.751 150.136 39.751H146.74V46.351H143.961V46.501ZM156.928 46.501V29.851H159.552V46.501H156.928ZM122.04 46.201V27.601H124.819V46.201H122.04ZM169.123 41.551C168.506 41.101 167.58 40.951 166.653 40.951C164.801 40.951 163.72 41.851 163.72 42.901C163.72 43.951 164.801 44.551 165.881 44.551C167.425 44.551 169.123 43.351 169.123 41.551ZM90.0855 40.351C90.0855 38.551 88.8504 36.601 86.5348 36.601C84.2194 36.601 82.9843 38.551 82.9843 40.351C82.9843 42.151 84.2194 44.101 86.5348 44.101C88.6961 44.101 90.0855 42.151 90.0855 40.351ZM103.979 40.351C103.979 38.551 102.744 36.601 100.428 36.601C98.1128 36.601 96.8777 38.551 96.8777 40.351C96.8777 42.151 98.1128 44.101 100.428 44.101C102.744 44.101 103.979 42.151 103.979 40.351ZM117.718 41.401C117.718 41.251 117.718 41.101 117.872 40.951C117.872 40.801 117.872 40.501 117.872 40.351C117.872 40.201 117.872 39.901 117.872 39.751V39.601C117.872 39.451 117.718 39.151 117.718 39.001C117.255 37.501 115.865 36.451 114.476 36.451C112.624 36.451 111.08 38.251 111.08 40.201C111.08 42.301 112.624 43.951 114.63 43.951C115.865 44.101 117.1 43.051 117.718 41.401ZM128.987 40.051L134.699 37.651C134.081 36.601 133.155 36.301 132.383 36.301C130.067 36.451 128.678 38.851 128.987 40.051ZM152.606 34.951C152.606 33.451 151.371 32.401 149.673 32.401H146.585V37.651H149.827C151.371 37.651 152.606 36.451 152.606 34.951Z" fill="white"/>
<path fill-rule="evenodd" clip-rule="evenodd" d="M177.155 48.4496C177.155 48.2988 177.155 48.2988 177.155 48.4496C177.001 48.2988 177.001 48.2988 177.155 48.4496C177.001 48.4496 177.001 48.4496 177.155 48.4496ZM177.155 48.2988C177.155 48.4496 177.155 48.4496 177.155 48.2988C177.001 48.4496 177.155 48.4496 177.155 48.2988Z" fill="white"/>
<path d="M60.4453 15.1508C60.4453 12.4508 62.4521 10.8008 64.9221 10.8008C66.6201 10.8008 67.7006 11.5508 68.4726 12.6008L67.2375 13.3508C66.7744 12.7508 66.0026 12.3008 64.9221 12.3008C63.2239 12.3008 61.989 13.5008 61.989 15.3008C61.989 17.1008 63.2239 18.3008 64.9221 18.3008C65.8483 18.3008 66.6201 17.8508 66.9289 17.5508V16.2008H64.4589V14.8508H68.6269V18.0008C67.8551 18.9009 66.6201 19.5009 65.0764 19.5009C62.4521 19.5009 60.4453 17.7008 60.4453 15.1508Z" fill="white"/>
<path d="M70.4844 19.3491V10.9492H76.3505V12.2992H71.8737V14.3992H76.1962V15.7492H71.8737V18.1492H76.3505V19.4991L70.4844 19.3491Z" fill="white"/>
<path d="M80.6711 19.3491V12.2992H78.0469V10.9492H84.8391V12.2992H82.2148V19.3491H80.6711Z" fill="white"/>
<path d="M90.0859 19.3491V10.9492H91.6296V19.3491H90.0859Z" fill="white"/>
<path d="M95.7961 19.3491V12.2992H93.1719V10.9492H99.9641V12.2992H97.3398V19.3491H95.7961Z" fill="white"/>
<path d="M104.906 15.1508C104.906 12.6008 106.759 10.8008 109.383 10.8008C112.007 10.8008 113.86 12.6008 113.86 15.1508C113.86 17.7008 112.007 19.5009 109.383 19.5009C106.759 19.5009 104.906 17.5508 104.906 15.1508ZM112.162 15.1508C112.162 13.3508 111.081 12.1508 109.229 12.1508C107.531 12.1508 106.296 13.5008 106.296 15.1508C106.296 16.9508 107.376 18.1508 109.229 18.1508C111.081 18.1508 112.162 16.8008 112.162 15.1508Z" fill="white"/>
<path d="M121.583 19.3491L117.106 13.3492V19.3491H115.562V10.9492H117.106L121.583 16.7992V10.9492H123.127V19.3491H121.583Z" fill="white"/>
<defs>
<linearGradient id="paint0_linear_5522_1248" x1="25.5073" y1="9.8604" x2="33.6922" y2="44.4549" gradientUnits="userSpaceOnUse">
<stop stop-color="#006884"/>
<stop offset="1" stop-color="#8AD1D0"/>
</linearGradient>
<linearGradient id="paint1_linear_5522_1248" x1="14.9682" y1="14.7657" x2="38.2083" y2="27.6954" gradientUnits="userSpaceOnUse">
<stop stop-color="#24BBB6"/>
<stop offset="1" stop-color="#DBE692"/>
</linearGradient>
<linearGradient id="paint2_linear_5522_1248" x1="42.067" y1="35.4308" x2="42.067" y2="23.5082" gradientUnits="userSpaceOnUse">
<stop stop-color="#FCC072"/>
<stop offset="1" stop-color="#F58A5B"/>
</linearGradient>
<linearGradient id="paint3_linear_5522_1248" x1="19.5301" y1="49.9031" x2="37.5912" y2="30.9866" gradientUnits="userSpaceOnUse">
<stop stop-color="#712B8F"/>
<stop offset="1" stop-color="#EA1D27"/>
</linearGradient>
</defs>
</svg>
