<svg width="103" height="71" viewBox="0 0 103 71" fill="none" xmlns="http://www.w3.org/2000/svg">
<g clip-path="url(#clip0_5521_1235)">
<path d="M100 1.79688H3C1.89543 1.79688 1 2.69231 1 3.79688V67.7969C1 68.9014 1.89543 69.7969 3 69.7969H100C101.105 69.7969 102 68.9014 102 67.7969V3.79688C102 2.69231 101.105 1.79688 100 1.79688Z" stroke="#393939" stroke-width="2"/>
<path d="M101.762 29.7969V41.0219H99.8641C99.6784 41.0219 99.5004 40.9481 99.3691 40.8168C99.2378 40.6856 99.1641 40.5075 99.1641 40.3219V30.4969C99.1641 30.3112 99.2378 30.1332 99.3691 30.0019C99.5004 29.8706 99.6784 29.7969 99.8641 29.7969H101.762Z" fill="#393939"/>
</g>
<defs>
<clipPath id="clip0_5521_1235">
<rect width="103" height="70" fill="white" transform="translate(0 0.796875)"/>
</clipPath>
</defs>
</svg>
