<svg width="23" height="22" viewBox="0 0 23 22" fill="none" xmlns="http://www.w3.org/2000/svg">
<g clip-path="url(#clip0_5521_1027)">
<path d="M11.6562 0.34375C5.77095 0.34375 1 5.1147 1 11C1 16.8853 5.77095 21.6562 11.6562 21.6562C17.5415 21.6562 22.3125 16.8853 22.3125 11C22.3125 5.1147 17.5415 0.34375 11.6562 0.34375ZM16.5956 7.59086C16.4352 9.27588 15.7413 13.3649 15.3882 15.2522C15.2388 16.0507 14.9446 16.3185 14.6599 16.3447C14.0412 16.4016 13.5712 15.9357 12.9718 15.5428C12.0339 14.928 11.5041 14.5453 10.5937 13.9454C9.54159 13.2521 10.2236 12.8712 10.8232 12.2481C10.9801 12.0851 13.7067 9.60511 13.7595 9.38012C13.7661 9.35198 13.7724 9.24692 13.7099 9.19175C13.6474 9.13657 13.5556 9.15527 13.4893 9.17026C13.3952 9.19163 11.8969 10.1819 8.99438 12.1412C8.56913 12.4332 8.18393 12.5755 7.83878 12.5681C7.45829 12.5599 6.7264 12.353 6.18229 12.1761C5.51494 11.9591 4.98453 11.8445 5.03073 11.4761C5.05479 11.2841 5.31905 11.0879 5.8235 10.8874C8.93003 9.53392 11.0015 8.6416 12.038 8.21043C14.9973 6.9795 15.6123 6.76569 16.0131 6.75855C16.1012 6.75709 16.2983 6.77892 16.426 6.88252C16.5109 6.95632 16.565 7.0593 16.5777 7.1711C16.5993 7.30991 16.6053 7.45071 16.5956 7.59086Z" fill="#98A2B3"/>
</g>
<defs>
<clipPath id="clip0_5521_1027">
<rect width="22" height="22" fill="white" transform="translate(0.65625)"/>
</clipPath>
</defs>
</svg>
