<svg width="27" height="20" viewBox="0 0 27 20" fill="none" xmlns="http://www.w3.org/2000/svg">
<path d="M26.3762 3.58672C26.0709 2.43706 25.1713 1.53163 24.0291 1.22436C21.9588 0.666016 13.6569 0.666016 13.6569 0.666016C13.6569 0.666016 5.3551 0.666016 3.2847 1.22436C2.14249 1.53168 1.24289 2.43706 0.937562 3.58672C0.382812 5.67053 0.382812 10.0182 0.382812 10.0182C0.382812 10.0182 0.382812 14.3659 0.937562 16.4497C1.24289 17.5994 2.14249 18.4671 3.2847 18.7743C5.3551 19.3327 13.6569 19.3327 13.6569 19.3327C13.6569 19.3327 21.9587 19.3327 24.0291 18.7743C25.1713 18.4671 26.0709 17.5994 26.3762 16.4497C26.931 14.3659 26.931 10.0182 26.931 10.0182C26.931 10.0182 26.931 5.67053 26.3762 3.58672ZM10.9417 13.9656V6.07084L17.8804 10.0183L10.9417 13.9656Z" fill="#98A2B3"/>
</svg>
